<svg xmlns="http://www.w3.org/2000/svg" width="62" height="20" viewBox="0 0 62 20">
    <g fill="none" fill-rule="evenodd">
        <g fill-rule="nonzero">
            <path fill="#2D2D2D" d="M12.276 3.455l-1.222.58c-.636-1.522-2.177-2.61-4.476-2.61-3.13 0-4.842 1.885-4.842 5.098v5.026c0 2.948 1.786 5.074 4.891 5.074 2.397 0 3.718-.797 4.451-2.779l1.272.484C11.543 16.84 9.464 18 6.554 18 2.592 18 0 15.367 0 11.549V6.548C0 2.513 2.421 0 6.48 0c2.764 0 5.063 1.522 5.796 3.455zM25.214 13.3c0 2.775-1.85 4.7-5.107 4.7C16.827 18 15 16.075 15 13.3V9.775C15 7 16.827 5 20.107 5c3.28 0 5.107 2 5.107 4.775V13.3zm-8.738-.05c0 2.025 1.124 3.525 3.631 3.525 2.507 0 3.631-1.5 3.631-3.525V9.8c0-2.025-1.124-3.575-3.63-3.575-2.53 0-3.632 1.55-3.632 3.575v3.45zM30.456 18H29V5.229h1.315l.047 1.704h.047C31.395 5.687 32.898 5 34.612 5c3.052 0 4.602 2.086 4.602 4.96V18h-1.479V9.986c0-2.187-1.104-3.663-3.428-3.663a4.605 4.605 0 0 0-3.851 2.06V18z"/>
            <path fill="#0D80BF" d="M47.957 9.418L42.117 1h1.947l4.971 7.433L53.983 1h1.923l-5.839 8.488L56 18h-1.946l-5.09-7.527L43.924 18H42z"/>
        </g>
     </g>
</svg>
