<svg xmlns="http://www.w3.org/2000/svg" width="16" height="16" viewBox="0 0 16 16">
    <g fill="none" fill-rule="evenodd">
        <circle cx="8" cy="8" r="8" fill="#F93B3D"/>
        <path fill="#FFF" fill-rule="nonzero" d="M6.2 8.837c0 .474-.348.871-.804.918l-2.317.24A.95.95 0 0 1 2.98 10c-.542 0-.98-.454-.981-1.013v-.15a2.203 2.203 0 0 1 .615-1.533C4.035 5.84 5.954 5 8 5s3.965.839 5.385 2.304c.399.412.614.962.615 1.534v.149c0 .033-.002.067-.005.1-.054.557-.534.964-1.074.908l-2.317-.24a.911.911 0 0 1-.803-.917c0-.41.111-.804.314-1.142a6.36 6.36 0 0 0-4.23 0c.203.338.314.731.315 1.141z"/>
    </g>
</svg>
