<svg width="42" height="42" viewBox="0 0 42 42" fill="none" xmlns="http://www.w3.org/2000/svg">
<path d="M21 42C9.40202 42 0 32.598 0 21C0 9.40202 9.40202 0 21 0C32.598 0 42 9.40202 42 21C42 32.598 32.598 42 21 42ZM21 40C31.4934 40 40 31.4934 40 21C40 10.5066 31.4934 2 21 2C10.5066 2 2 10.5066 2 21C2 31.4934 10.5066 40 21 40ZM17.3991 22.1861C17.3994 23.1971 16.7043 24.0437 15.7913 24.1444L11.1571 24.6554C11.0923 24.6625 11.0271 24.6661 10.9619 24.6661C9.87851 24.6662 9.00013 23.6986 9.00003 22.5048L9 22.186C9.00197 20.9659 9.43358 19.7935 10.2304 18.9155C13.0701 15.7893 16.9076 13.9998 20.9992 14C25.0916 13.9998 28.9299 15.7893 31.77 18.9156C32.567 19.7938 32.9984 20.9667 33 22.1882L33 22.5052C33 22.577 32.9967 22.6487 32.9902 22.7201C32.8824 23.908 31.921 24.7746 30.8429 24.6558L26.2089 24.1449C25.2957 24.0443 24.6005 23.1971 24.6014 22.1867C24.6011 21.3116 24.8239 20.4732 25.2293 19.7518C22.4567 18.7144 19.4974 18.7318 16.771 19.7528C17.176 20.473 17.3988 21.3109 17.3991 22.1861Z" fill="#F93B3D"/>
</svg>
