<svg width="24" height="24" viewBox="0 0 24 24" fill="none" xmlns="http://www.w3.org/2000/svg">
<path d="M24 12C24 5.37258 18.6274 0 12 0C5.37258 0 0 5.37258 0 12C0 18.6274 5.37258 24 12 24C18.6274 24 24 18.6274 24 12Z" fill="#F93B3D"/>
<path d="M9.29933 13.1396C9.29955 13.8978 8.7782 14.5328 8.09348 14.6083L4.61783 14.9915C4.56919 14.9969 4.52034 14.9996 4.47146 14.9996C3.65888 14.9997 3.0001 14.2739 3.00002 13.3786L3 13.1395C3.00148 12.2245 3.32518 11.3451 3.92279 10.6867C6.05258 8.34196 8.93072 6.99986 11.9994 7C15.0687 6.99986 17.9474 8.34201 20.0775 10.6867C20.6752 11.3453 20.9988 12.2251 21 13.1411L21 13.3789C21 13.4327 20.9975 13.4865 20.9927 13.5401C20.9118 14.431 20.1908 15.081 19.3822 14.9918L15.9067 14.6087C15.2217 14.5332 14.7004 13.8978 14.701 13.14C14.7008 12.4837 14.868 11.8549 15.172 11.3138C13.0925 10.5358 10.8731 10.5488 8.82826 11.3146C9.13203 11.8547 9.29913 12.4832 9.29933 13.1396Z" fill="white"/>
</svg>
