<svg width="24" height="24" viewBox="0 0 24 24" fill="none" xmlns="http://www.w3.org/2000/svg">
<mask id="mask0" mask-type="alpha" maskUnits="userSpaceOnUse" x="0" y="0" width="24" height="24">
<path d="M0 0H24V24H0V0ZM1.3934 18.364C0.61235 19.145 0.61235 20.4113 1.3934 21.1924L2.80761 22.6066C3.58866 23.3876 4.85499 23.3876 5.63604 22.6066L22.6066 5.63604C23.3876 4.85499 23.3876 3.58866 22.6066 2.80761L21.1924 1.3934C20.4113 0.61235 19.145 0.61235 18.364 1.3934L1.3934 18.364Z" fill="white"/>
</mask>
<g mask="url(#mask0)">
<path fill-rule="evenodd" clip-rule="evenodd" d="M11 22V19H13V22H15C15.5523 22 16 22.4477 16 23C16 23.5523 15.5523 24 15 24H9C8.44772 24 8 23.5523 8 23C8 22.4477 8.44772 22 9 22H11Z" fill="white"/>
<path fill-rule="evenodd" clip-rule="evenodd" d="M20 10V12C20 16.4183 16.4183 20 12 20C7.58172 20 4 16.4183 4 12V10H6V12C6 15.3137 8.68629 18 12 18C15.3137 18 18 15.3137 18 12V10H20Z" fill="white"/>
<path d="M5 11C5.55228 11 6 10.5523 6 10C6 9.44772 5.55228 9 5 9C4.44772 9 4 9.44772 4 10C4 10.5523 4.44772 11 5 11Z" fill="white"/>
<path d="M19 11C19.5523 11 20 10.5523 20 10C20 9.44772 19.5523 9 19 9C18.4477 9 18 9.44772 18 10C18 10.5523 18.4477 11 19 11Z" fill="white"/>
<path d="M16 4C16 1.79086 14.2091 0 12 0C9.79086 0 8 1.79086 8 4V12C8 14.2091 9.79086 16 12 16C14.2091 16 16 14.2091 16 12V4Z" fill="white"/>
</g>
<path d="M20.4852 2.1005L2.10042 20.4853C1.70989 20.8758 1.70989 21.509 2.10042 21.8995C2.49094 22.29 3.12411 22.29 3.51463 21.8995L21.8994 3.51471C22.2899 3.12419 22.2899 2.49102 21.8994 2.1005C21.5089 1.70998 20.8757 1.70998 20.4852 2.1005Z" fill="#F93B3D"/>
</svg>
