<svg width="22" height="18" viewBox="0 0 22 18" fill="none" xmlns="http://www.w3.org/2000/svg">
<path fill-rule="evenodd" clip-rule="evenodd" d="M2 0H20C21.1045 0 22 0.89545 22 2V16C22 17.1046 21.1045 18 20 18H2C0.89551 18 0 17.1046 0 16V2C0 0.89545 0.89551 0 2 0ZM6.5059 11H5.8086L5.4219 9.8779H3.81055L3.4209 11H2.74707L4.27344 6.77246H4.97949L6.5059 11ZM4.64258 7.54H4.59277L3.97754 9.3271H5.2549L4.64258 7.54ZM7.1445 6.77246H7.8008V9.4854C7.8008 10.0771 8.1846 10.4873 8.8555 10.4873C9.5293 10.4873 9.9131 10.0771 9.9131 9.4854V6.77246H10.5693V9.5439C10.5693 10.4609 9.9189 11.1025 8.8555 11.1025C7.7979 11.1025 7.1445 10.4609 7.1445 9.5439V6.77246ZM13.3555 7.3701V11H12.6992V7.3701H11.3691V6.77246H14.6826V7.3701H13.3555ZM15.1514 8.8848C15.1514 7.5195 15.9131 6.66992 17.126 6.66992C18.3418 6.66992 19.0977 7.5225 19.0977 8.8848C19.0977 10.2441 18.3477 11.1025 17.126 11.1025C15.8955 11.1025 15.1514 10.2471 15.1514 8.8848ZM18.4268 8.8848C18.4268 7.9033 17.9258 7.2822 17.126 7.2822C16.3262 7.2822 15.8223 7.9033 15.8223 8.8848C15.8223 9.8604 16.3115 10.4902 17.126 10.4902C17.9287 10.4902 18.4268 9.8604 18.4268 8.8848Z" fill="#A7B0C0"/>
</svg>
