<svg width="16" height="16" viewBox="0 0 16 16" fill="none" xmlns="http://www.w3.org/2000/svg">
<path d="M8 16C12.4183 16 16 12.4183 16 8C16 3.58172 12.4183 0 8 0C3.58172 0 0 3.58172 0 8C0 12.4183 3.58172 16 8 16Z" fill="#00247D"/>
<mask id="mask0" mask-type="alpha" maskUnits="userSpaceOnUse" x="0" y="0" width="16" height="16">
<path d="M8 16C12.4183 16 16 12.4183 16 8C16 3.58172 12.4183 0 8 0C3.58172 0 0 3.58172 0 8C0 12.4183 3.58172 16 8 16Z" fill="white"/>
</mask>
<g mask="url(#mask0)">
<path d="M-8 0V16H24V0L-8 0Z" fill="#00247D"/>
<path d="M-7.99629 0.00467525L-7.99906 1.81411L4.41775 8.01797L-7.99558 14.2163L-8 15.9935L-4.4241 15.9978L7.99252 9.80187L20.4312 15.9979L23.9992 16L23.9991 14.2331L11.5683 8.01798L23.9984 1.81278L24 0.000638695L20.4446 0L7.99249 6.23308L-4.48244 0.00304445L-7.99629 0.00467525Z" fill="white"/>
<path fill-rule="evenodd" clip-rule="evenodd" d="M-1.20783 3.57191L-8 0.165805V-1L7.9837 7.01493L7.9837 7.01709L5.63177 7.02018L-1.20783 3.57191ZM7.98458 8.01743L7.9837 7.01709L7.98799 7.01708L7.9837 7.01493L7.98352 6.82159L21.5846 2.32458e-05L23.8956 0.0033313L7.98509 8.02331V8.01717L7.98458 8.01743ZM7.98458 8.01743L7.98459 8.02357L7.98509 8.02331V9.18298L-5.61411 15.9985L-7.99235 16L7.98458 8.01743ZM21.5846 2.32458e-05L21.5844 2.30074e-05L21.5846 1.44243e-05L21.5846 2.32458e-05ZM10.3709 9.01122L7.9859 9.0198L23.9777 16.9909L24 15.8416L10.3709 9.01122Z" fill="#CF142B"/>
<path d="M5.33333 0V5.33333H-8V10.6667H5.33333V16H10.6667V10.6667H24V5.33333H10.6667V0L5.33333 0Z" fill="white"/>
<path d="M6.4 0V6.4H-8V9.6H6.4V16H9.6V9.6H24V6.4H9.6V0L6.4 0Z" fill="#CF142B"/>
</g>
</svg>
