<svg width="24" height="24" viewBox="0 0 24 24" fill="none" xmlns="http://www.w3.org/2000/svg">
<path fill-rule="evenodd" clip-rule="evenodd" d="M19.1486 20.2863C18.8246 19.8654 18.8883 19.2686 19.254 18.8834C20.9558 17.0904 22 14.6672 22 12C22 6.47715 17.5228 2 12 2C6.47715 2 2 6.47715 2 12C2 14.6672 3.04418 17.0904 4.74604 18.8834C5.1117 19.2686 5.17541 19.8654 4.85143 20.2863C4.50047 20.7422 3.83587 20.8135 3.43297 20.4027C1.30949 18.238 0 15.2719 0 12C0 5.37258 5.37258 0 12 0C18.6274 0 24 5.37258 24 12C24 15.2719 22.6905 18.238 20.567 20.4027C20.1641 20.8135 19.4995 20.7422 19.1486 20.2863ZM13 15.874C14.7252 15.4299 16 13.8638 16 12C16 9.79086 14.2091 8 12 8C9.79086 8 8 9.79086 8 12C8 13.8638 9.27477 15.4299 11 15.874V22H9C8.44771 22 8 22.4477 8 23C8 23.5523 8.44771 24 9 24H15C15.5523 24 16 23.5523 16 23C16 22.4477 15.5523 22 15 22H13V15.874ZM16.7383 15.6813C16.4194 16.0912 16.3653 16.6707 16.6821 17.0823C17.042 17.5497 17.7289 17.6148 18.1099 17.1644C19.2891 15.7709 20 13.9684 20 12C20 7.58172 16.4183 4 12 4C7.58172 4 4 7.58172 4 12C4 13.9684 4.71094 15.7709 5.89006 17.1644C6.27108 17.6148 6.95805 17.5497 7.31787 17.0823C7.6347 16.6707 7.58063 16.0912 7.2617 15.6813C6.47094 14.6649 6 13.3875 6 12C6 8.68629 8.68629 6 12 6C15.3137 6 18 8.68629 18 12C18 13.3875 17.5291 14.6649 16.7383 15.6813Z" fill="#1590D4"/>
</svg>
