<svg width="24" height="24" viewBox="0 0 24 24" fill="none" xmlns="http://www.w3.org/2000/svg">
<path fill-rule="evenodd" clip-rule="evenodd" d="M18 10C18 9.44771 18.4477 9 19 9C19.5523 9 20 9.44771 20 10V12C20 16.0796 16.9463 19.446 13 19.9381V22H15C15.5523 22 16 22.4477 16 23C16 23.5523 15.5523 24 15 24H9C8.44772 24 8 23.5523 8 23C8 22.4477 8.44772 22 9 22H11V19.9381C7.05369 19.446 4 16.0796 4 12V10C4 9.44771 4.44772 9 5 9C5.55228 9 6 9.44771 6 10V12C6 15.3137 8.68629 18 12 18C15.3137 18 18 15.3137 18 12V10ZM12 0C14.2091 0 16 1.79086 16 4V12C16 14.2091 14.2091 16 12 16C9.79086 16 8 14.2091 8 12V4C8 1.79086 9.79086 0 12 0Z" fill="#00A07A"/>
</svg>
