<svg width="16" height="10" viewBox="0 0 16 10" fill="none" xmlns="http://www.w3.org/2000/svg">
<path fill-rule="evenodd" clip-rule="evenodd" d="M2 0H9C10.1046 0 11 0.89543 11 2V8C11 9.1046 10.1046 10 9 10H2C0.89543 10 0 9.1046 0 8V2C0 0.89543 0.89543 0 2 0ZM12 2.81175L14.52 1.43306C15.0046 1.16799 15.6122 1.34588 15.8773 1.8304C15.9578 1.97756 16 2.14261 16 2.31036V7.6898C16 8.2421 15.5523 8.6898 15 8.6898C14.8323 8.6898 14.6672 8.6476 14.52 8.5671L12 7.1884V2.81175Z" fill="#0D80BF"/>
</svg>
